<?xml version="1.0" encoding="utf-8"?>
<!-- Generator: Adobe Illustrator 16.0.0, SVG Export Plug-In . SVG Version: 6.00 Build 0)  -->
<!DOCTYPE svg PUBLIC "-//W3C//DTD SVG 1.1//EN" "http://www.w3.org/Graphics/SVG/1.1/DTD/svg11.dtd">
<svg version="1.1" id="Layer_1" xmlns="http://www.w3.org/2000/svg" xmlns:xlink="http://www.w3.org/1999/xlink" x="0px" y="0px"
	 width="144.452px" height="82.394px" viewBox="0 0 144.452 82.394" enable-background="new 0 0 144.452 82.394"
	 xml:space="preserve">
<g>
	<g>
		<g>
			<path fill="#00A88E" d="M18.685,52.04c-3.441,0.066-4.272,0.719-5.317,1.24c-1.042,0.516-2.158,1.828-2.541,3.385
				c-0.38,1.556-0.286,3.36,0.796,5.039c1.393,2.166,4.257,3.705,7.116,3.832c1.939,0.086,4.195-0.854,5.081-1.52
				c0.892-0.664,3.116-2.217,3.245-4.941c0.145-3.07-0.827-3.99-1.717-4.943C24.459,53.181,22.126,51.974,18.685,52.04"/>
			<g>
				<g>
					<path d="M18.88,50.023c0,0-0.892,0.04-1.603,0.118c-0.352,0.04-0.467-0.432-0.325-0.919c0.11-0.366,0.05-1.588,0.056-2.032
						c0.005-0.412,0.132-5.273,0.25-7.087c0.117-1.812,1.045-20.365,1.113-26.836C18.436,7.417,18.54,1.415,18.54,0.995
						c0,0,0.021-0.614,0.031-0.854c0.016-0.239,0.133-0.119,0.201-0.04c0.068,0.082,0.628,0.681,0.656,0.892
						c0.024,0.216,0.259,1.24,0.427,1.629c0.174,0.397,0.308,2.689,0.308,3.715s-0.069,7.007,0.007,8.333
						c0.079,1.323,0.404,21.465,0.495,25.205c0.102,4.265,0.58,9.27,0.326,9.723C20.632,50.239,19.564,49.989,18.88,50.023"/>
					<path d="M15.102,50.341c-0.49,0.414-0.906,0.287-1.86,0.684c-0.951,0.391-1.433,0.682-1.83,0.549
						c-0.431-0.145-0.193-0.932-0.157-1.312c0.077-0.782,0.652-6.252-1.8-12.594c-1.522-3.941-3.428-6.248-5.11-8.002
						c-1.869-1.956-3.977-3.316-4.331-3.478c-0.027-0.017-0.004-0.05-0.008-0.056c0.133-0.102,0.447-0.133,0.847-0.03
						c0.383,0.103,3.597,1.511,7.195,5.331c1.779,1.887,4.536,4.6,6.414,11.539C14.943,44.749,15.61,49.909,15.102,50.341"/>
					<path d="M22.204,49.573c-0.063,0.354,0.077,0.672,0.782,0.881c0.703,0.207,1.799,0.678,2.765,1.404
						c0.965,0.729,1.329,0.492,1.51,0.416c0.185-0.079,0.418-0.211,0.313-0.91c-0.103-0.703,0.235-4.963,2.294-9.198
						c2.059-4.238,4.224-6.627,7.042-8.551c2.813-1.925,4.988-2.147,6.838-2.206c2.448-0.08,4.607,0.719,5.545,1.214
						c0.939,0.491,1.613,1.398,1.723,1.371c0.098-0.03,0.114-0.221,0.033-0.412c-0.059-0.143-0.457-0.796-1.652-1.656
						c-1.199-0.858-3.86-2.053-6.988-2.182c-3.129-0.131-6.727,0.518-10.325,2.986c-4.016,2.756-7.064,7.227-8.708,12.738
						C22.746,47.579,22.31,48.999,22.204,49.573"/>
				</g>
				<path d="M14.301,66.543c-2.077-0.778-4.403-0.822-5.687-0.573c-3.196,0.623-7.466,2.523-7.788,7.348
					c-0.222,3.339,2.602,6.077,6.559,6.025c4.808-0.067,8.926-3.133,13.021-6.309c3.237-2.514,7.003-5.061,10.22-4.621
					c2.885,0.396,4.42,2.287,4.237,4.591c-0.094,1.204-0.898,4.24-4.839,5.453c-2.541,0.777-4.929,0.106-6.147-0.892
					c-0.849-0.695-1.287-1.479-2.435-1.875c-1.194-0.416-2.318-0.32-3.347,0.545c-0.792,0.664-0.558,2.102-0.128,2.818
					c0.546,0.9,2.925,3.34,8.723,3.34c3.616,0,6.733-0.947,9.467-3.428c1.921-1.746,3.542-4.34,3.605-7.611
					c0.106-5.531-5.846-7.154-8.277-7.154c-3.73,0-7.282,1.609-10.68,3.971c-3.949,2.738-8.486,7.418-12.82,7.311
					c-2.167-0.053-3.03-1.619-2.996-2.525c0.05-1.309,0.815-2.584,2.376-3.297c1.483-0.678,3.654-0.322,4.383,0.108
					c1.366,0.795,2.654,1.159,3.893,0.3C17.467,68.799,15.986,67.179,14.301,66.543"/>
			</g>
		</g>
		<g>
			<path d="M40.908,57.185h0.702v0.771h-0.702V57.185z M40.977,59.485h0.564v5.867h-0.564V59.485z"/>
			<path d="M43.381,63.846v-3.843h-0.852v-0.518h0.852V57.61h0.563v1.875h2.06v0.518h-2.06v3.785c0,0.84,0.495,1.139,1.173,1.139
				c0.288,0,0.529-0.057,0.863-0.207v0.529c-0.299,0.139-0.587,0.207-0.955,0.207C44.117,65.456,43.381,64.962,43.381,63.846z"/>
			<path d="M47.038,60.221c0.495-0.253,0.679-0.507,0.644-0.943h-0.311V58.3h0.759v0.852c0,0.713-0.265,1.092-0.955,1.357
				L47.038,60.221z"/>
			<path d="M49.119,64.616l0.333-0.448c0.644,0.495,1.357,0.771,2.105,0.771c0.794,0,1.415-0.438,1.415-1.115V63.8
				c0-0.69-0.736-0.943-1.553-1.174c-0.955-0.275-2.013-0.563-2.013-1.61v-0.022c0-0.943,0.793-1.623,1.933-1.623
				c0.702,0,1.496,0.254,2.083,0.645l-0.299,0.472c-0.541-0.356-1.185-0.587-1.806-0.587c-0.805,0-1.334,0.438-1.334,1.023v0.023
				c0,0.656,0.794,0.897,1.634,1.139c0.943,0.266,1.933,0.61,1.933,1.646v0.022c0,1.047-0.897,1.714-2.025,1.714
				C50.672,65.468,49.74,65.123,49.119,64.616z"/>
			<path d="M57.364,59.485h0.633l1.771,5.154l1.772-5.178h0.449l1.771,5.178l1.772-5.154h0.61l-2.151,5.914h-0.483l-1.749-5.028
				l-1.76,5.028h-0.483L57.364,59.485z"/>
			<path d="M67.542,56.954h0.564v3.625c0.391-0.691,1.047-1.232,2.117-1.232c1.484,0,2.347,1.014,2.347,2.416v3.59h-0.563v-3.485
				c0-1.208-0.68-2.002-1.865-2.002c-1.15,0-2.036,0.874-2.036,2.094v3.394h-0.564V56.954z"/>
			<path d="M73.877,63.65v-0.022c0-1.221,1.047-1.91,2.566-1.91c0.816,0,1.381,0.104,1.943,0.253v-0.253
				c0-1.186-0.725-1.795-1.932-1.795c-0.714,0-1.301,0.195-1.842,0.472l-0.207-0.495c0.645-0.299,1.277-0.506,2.082-0.506
				c0.795,0,1.428,0.219,1.854,0.645c0.391,0.391,0.598,0.932,0.598,1.656v3.658h-0.553v-0.978
				c-0.402,0.563-1.127,1.116-2.242,1.116C75.051,65.491,73.877,64.87,73.877,63.65z M78.399,63.155v-0.667
				c-0.494-0.126-1.15-0.265-1.99-0.265c-1.242,0-1.933,0.553-1.933,1.369v0.023c0,0.852,0.806,1.346,1.702,1.346
				C77.375,64.962,78.399,64.226,78.399,63.155z"/>
			<path d="M81.043,63.846v-3.843h-0.852v-0.518h0.852V57.61h0.563v1.875h2.061v0.518h-2.061v3.785c0,0.84,0.495,1.139,1.174,1.139
				c0.287,0,0.529-0.057,0.863-0.207v0.529c-0.299,0.139-0.587,0.207-0.955,0.207C81.78,65.456,81.043,64.962,81.043,63.846z"/>
			<path d="M87.413,66.976l0.196-0.495c0.311,0.149,0.563,0.219,1.001,0.219c0.609,0,1.012-0.356,1.449-1.381l-2.818-5.833h0.656
				l2.438,5.246l2.117-5.246h0.621l-2.542,6.074c-0.518,1.231-1.117,1.669-1.957,1.669C88.126,67.229,87.805,67.147,87.413,66.976z"
				/>
			<path d="M93.761,62.442v-0.023c0-1.645,1.276-3.072,3.026-3.072c1.736,0,3.002,1.404,3.002,3.049v0.023
				c0,1.646-1.277,3.072-3.025,3.072C95.026,65.491,93.761,64.087,93.761,62.442z M99.18,62.442v-0.023
				c0-1.415-1.059-2.543-2.416-2.543c-1.393,0-2.394,1.14-2.394,2.52v0.023c0,1.416,1.059,2.543,2.417,2.543
				C98.179,64.962,99.18,63.823,99.18,62.442z"/>
			<path d="M101.178,63.075v-3.59h0.564v3.486c0,1.208,0.678,2.002,1.863,2.002c1.15,0,2.037-0.875,2.037-2.094v-3.395h0.563v5.867
				h-0.563v-1.092c-0.392,0.689-1.047,1.23-2.117,1.23C102.042,65.491,101.178,64.479,101.178,63.075z"/>
			<path d="M110.367,59.485h0.632l1.772,5.154l1.772-5.178h0.448l1.771,5.178l1.772-5.154h0.609l-2.151,5.914h-0.483l-1.749-5.028
				L113,65.399h-0.482L110.367,59.485z"/>
			<path d="M119.832,63.65v-0.022c0-1.221,1.046-1.91,2.565-1.91c0.816,0,1.381,0.104,1.945,0.253v-0.253
				c0-1.186-0.727-1.795-1.934-1.795c-0.713,0-1.301,0.195-1.842,0.472l-0.207-0.495c0.645-0.299,1.277-0.506,2.084-0.506
				c0.793,0,1.426,0.219,1.852,0.645c0.391,0.391,0.598,0.932,0.598,1.656v3.658h-0.551v-0.978
				c-0.404,0.563-1.129,1.116-2.244,1.116C121.004,65.491,119.832,64.87,119.832,63.65z M124.352,63.155v-0.667
				c-0.494-0.126-1.15-0.265-1.99-0.265c-1.242,0-1.932,0.553-1.932,1.369v0.023c0,0.852,0.805,1.346,1.703,1.346
				C123.329,64.962,124.352,64.226,124.352,63.155z"/>
			<path d="M126.686,59.485h0.563v1.094c0.393-0.691,1.047-1.232,2.117-1.232c1.484,0,2.348,1.014,2.348,2.416v3.59h-0.564v-3.485
				c0-1.208-0.678-2.002-1.863-2.002c-1.15,0-2.037,0.874-2.037,2.094v3.394h-0.563V59.485z"/>
			<path d="M133.817,63.846v-3.843h-0.852v-0.518h0.852V57.61h0.563v1.875h2.061v0.518h-2.061v3.785c0,0.84,0.496,1.139,1.174,1.139
				c0.287,0,0.529-0.057,0.863-0.207v0.529c-0.299,0.139-0.588,0.207-0.955,0.207C134.553,65.456,133.817,64.962,133.817,63.846z"/>
		</g>
		<g>
			<g>
				<path d="M40.578,38.516h1.609l9.599,12.207V38.516h1.675v15.231h-1.37l-9.835-12.49v12.49h-1.678V38.516z"/>
				<path d="M56.46,38.516h1.719v13.643h8.575v1.589H56.46V38.516z"/>
				<path d="M68.623,38.516h5.702c3.438,0,5.701,1.827,5.701,4.829v0.045c0,3.287-2.743,4.982-5.984,4.982h-3.7v5.375h-1.719V38.516
					z M74.106,46.806c2.524,0,4.179-1.349,4.179-3.353v-0.042c0-2.174-1.632-3.307-4.091-3.307h-3.853v6.701H74.106z"/>
			</g>
			<g>
				<g>
					<path fill="#00A88E" d="M86.482,51.387v2.36h-3.483V32.092h3.483v8.989c1.124-1.585,2.707-2.851,5.153-2.851
						c3.599,0,7.082,2.851,7.082,7.888v0.059c0,5.038-3.453,7.889-7.082,7.889C89.131,54.065,87.549,52.797,86.482,51.387z
						 M95.178,46.177v-0.059c0-2.936-1.987-4.865-4.348-4.865s-4.435,1.956-4.435,4.865v0.059c0,2.936,2.074,4.865,4.435,4.865
						C93.22,51.042,95.178,49.169,95.178,46.177z"/>
					<path fill="#00A88E" d="M100.767,32.092h3.482v21.655h-3.482V32.092z"/>
					<path fill="#00A88E" d="M112.341,51.761l1.556-2.359c1.641,1.238,3.425,1.868,4.979,1.868c1.497,0,2.361-0.63,2.361-1.639
						v-0.058c0-1.182-1.612-1.584-3.397-2.131c-2.245-0.634-4.749-1.555-4.749-4.462v-0.057c0-2.88,2.388-4.637,5.41-4.637
						c1.902,0,3.975,0.662,5.587,1.726l-1.381,2.478c-1.47-0.892-3.025-1.44-4.291-1.44c-1.353,0-2.13,0.636-2.13,1.527v0.059
						c0,1.092,1.643,1.554,3.426,2.129c2.218,0.69,4.721,1.7,4.721,4.435v0.059c0,3.193-2.476,4.776-5.641,4.776
						C116.632,54.034,114.242,53.259,112.341,51.761z"/>
					<path fill="#00A88E" d="M125.299,51.761l1.557-2.359c1.641,1.238,3.425,1.868,4.98,1.868c1.497,0,2.36-0.63,2.36-1.639v-0.058
						c0-1.182-1.613-1.584-3.397-2.131c-2.245-0.634-4.749-1.555-4.749-4.462v-0.057c0-2.88,2.389-4.637,5.411-4.637
						c1.898,0,3.974,0.662,5.587,1.726l-1.385,2.478c-1.467-0.892-3.021-1.44-4.288-1.44c-1.354,0-2.133,0.636-2.133,1.527v0.059
						c0,1.092,1.645,1.554,3.429,2.129c2.216,0.69,4.722,1.7,4.722,4.435v0.059c0,3.193-2.477,4.776-5.645,4.776
						C129.591,54.034,127.201,53.259,125.299,51.761z"/>
					<rect x="107.274" y="38.546" fill="#00A88E" width="3.484" height="15.201"/>
					
						<rect x="107.407" y="32.758" transform="matrix(0.7074 -0.7068 0.7068 0.7074 7.6058 87.1094)" fill="#00A88E" width="3.219" height="3.221"/>
				</g>
				<g>
					<path d="M139.264,38.913h-1.01v-0.34h2.369v0.34h-1.01v2.738h-0.35V38.913z M141.323,38.573h0.37l1.2,1.829l1.199-1.829h0.359
						v3.078h-0.35v-2.458l-1.189,1.779h-0.051l-1.189-1.779v2.458h-0.35V38.573z"/>
				</g>
			</g>
		</g>
	</g>
</g>
</svg>
